<?xml version="1.0" encoding="UTF-8" standalone="no"?>
<!-- Generator: Adobe Illustrator 19.2.1, SVG Export Plug-In . SVG Version: 6.00 Build 0)  -->

<svg
   xmlns:dc="http://purl.org/dc/elements/1.1/"
   xmlns:cc="http://creativecommons.org/ns#"
   xmlns:rdf="http://www.w3.org/1999/02/22-rdf-syntax-ns#"
   xmlns:svg="http://www.w3.org/2000/svg"
   xmlns="http://www.w3.org/2000/svg"
   xmlns:sodipodi="http://sodipodi.sourceforge.net/DTD/sodipodi-0.dtd"
   xmlns:inkscape="http://www.inkscape.org/namespaces/inkscape"
   version="1.1"
   id="Layer_1"
   x="0px"
   y="0px"
   viewBox="0 0 81.934898 49.715515"
   xml:space="preserve"
   inkscape:version="0.91 r13725"
   sodipodi:docname="logo.svg"
   width="81.934898"
   height="49.715515"><metadata
     id="metadata43"><rdf:RDF><cc:Work
         rdf:about=""><dc:format>image/svg+xml</dc:format><dc:type
           rdf:resource="http://purl.org/dc/dcmitype/StillImage" /><dc:title></dc:title></cc:Work></rdf:RDF></metadata><defs
     id="defs41" /><sodipodi:namedview
     pagecolor="#ffffff"
     bordercolor="#666666"
     borderopacity="1"
     objecttolerance="10"
     gridtolerance="10"
     guidetolerance="10"
     inkscape:pageopacity="0"
     inkscape:pageshadow="2"
     inkscape:window-width="3200"
     inkscape:window-height="1727"
     id="namedview39"
     showgrid="false"
     fit-margin-top="1"
     fit-margin-left="1"
     fit-margin-right="1"
     fit-margin-bottom="1"
     inkscape:zoom="6.1699346"
     inkscape:cx="105.38823"
     inkscape:cy="-17.067434"
     inkscape:window-x="0"
     inkscape:window-y="49"
     inkscape:window-maximized="1"
     inkscape:current-layer="g5" /><style
     type="text/css"
     id="style3">
	.st0{fill:#CCCCCC;}
</style><g
     id="g5"
     transform="translate(-270.26696,-281.08449)"><g
       id="g25"><path
         class="st0"
         d="m 292.8,295.6 c -1.7,3.1 -2.7,6.6 -2.7,10.4 0,11.7 9.5,21.2 21.2,21.2 11.4,0 20.7,-9.1 21.1,-20.4 -3.6,6.4 -10.5,10.7 -18.4,10.7 -11.7,0 -21.2,-9.5 -21.2,-21.2 0,-0.2 0,-0.4 0,-0.7 m 0,0 0,0 0,0"
         id="path27"
         inkscape:connector-curvature="0"
         style="fill:#cccccc" /></g><g
       id="g29"><path
         d="M 293.5,322"
         id="path31"
         inkscape:connector-curvature="0" /><path
         d="m 351.1,295.3 c -0.6,-2.3 -2.6,-4.2 -19.2,-1.3 -6.2,-10.7 -20.3,-15.5 -32.3,-8.9 -2.2,1.2 -4.2,2.8 -5.9,4.7 -4.1,4.6 -6.3,10.3 -6.3,16.1 -14.3,5.2 -16.8,8 -16,10.7 0.4,1.7 2.1,3.1 9.1,2.6 11.8,-0.9 32.7,-6.2 47.3,-10.7 0.6,0.7 1.4,1.2 2.3,1.6 -1.6,6.9 -6.9,12.6 -13.8,14.4 -5,1.3 -10.1,0.6 -14.6,-1.9 -1.8,-1.1 -3.4,-2.4 -4.8,-3.9 -0.3,-0.3 -0.8,-0.3 -1.1,0 l -1.8,2.5 c -0.3,0.4 -0.2,0.9 0.1,1.3 1.5,1.6 3.3,3 5.3,4.1 3.7,2.1 7.8,3.2 11.9,3.2 2.1,0 4.2,-0.3 6.2,-0.8 8.7,-2.3 15.5,-9.6 17.3,-18.8 2.3,-0.9 3.9,-3 4.1,-5.6 11,-4.4 12.8,-6.8 12.2,-9.3 z m -25.1,9 c -4.4,1.4 -9.2,2.8 -14.1,4.2 -7.1,1.9 -13.4,3.3 -18.7,4.3 -0.2,-0.6 -0.4,-1.2 -0.6,-1.8 -1.3,-5 -0.6,-10.1 1.9,-14.6 2.6,-4.5 6.7,-7.6 11.7,-9 9.4,-2.5 19.2,2.5 22.8,11.4 -1.8,1.1 -3,3.2 -3,5.5 z m 6.4,1.7 c -1,0 -1.8,-0.8 -1.8,-1.8 0,-1 0.8,-1.8 1.8,-1.8 1,0 1.8,0.8 1.8,1.8 0,1 -0.9,1.8 -1.8,1.8 z"
         id="path33"
         inkscape:connector-curvature="0" /></g><circle
       cx="280.89999"
       cy="298.5"
       r="1.6"
       id="circle35" /><circle
       cx="282.5"
       cy="294"
       r="0.80000001"
       id="circle37" /></g></svg>